<svg id="레이어_1" data-name="레이어 1" xmlns="http://www.w3.org/2000/svg" viewBox="0 0 566.48 90.5"><defs><style>.cls-1{fill:#ba000c;}.cls-2{fill:#00387f;}.cls-3{fill:#acadae;}.cls-4{fill:#615f5f;}</style></defs><path class="cls-1" d="M90.77,105.13H57.17a.18.18,0,0,0-.18.18v33.78h8.82L74,127.77l8.16,11.32H91V105.31A.18.18,0,0,0,90.77,105.13Z" transform="translate(-22.65 -105.13)"/><path class="cls-2" d="M57,139.09H23.21a.18.18,0,0,0-.18.18v22.46H34.35v11.32H56.84a.15.15,0,0,0,.15-.14Z" transform="translate(-22.65 -105.13)"/><path class="cls-3" d="M124.91,161.73H113.59V150.41h11.32V139.23a.14.14,0,0,0-.14-.14H91v33.8a.16.16,0,0,0,.16.16h33.64a.16.16,0,0,0,.16-.16Z" transform="translate(-22.65 -105.13)"/><path class="cls-3" d="M31.06,190a3,3,0,0,0-.64-1.06,4.35,4.35,0,0,0-1-.77,11.25,11.25,0,0,0-1.34-.63l-1-.41a5.56,5.56,0,0,1-.74-.34,2.82,2.82,0,0,1-.61-.41,1.85,1.85,0,0,1-.4-.52,1.47,1.47,0,0,1-.15-.67,1.59,1.59,0,0,1,.61-1.38,2.87,2.87,0,0,1,1.77-.47,7.43,7.43,0,0,1,1.49.15,9.69,9.69,0,0,1,1.16.34l0,0,0-.06a5.9,5.9,0,0,0,.41-1.56v0l-.05,0a8.92,8.92,0,0,0-1.43-.38,9.38,9.38,0,0,0-1.71-.15,5,5,0,0,0-3.29,1A3.35,3.35,0,0,0,23,185.32a3.76,3.76,0,0,0,.19,1.24,2.88,2.88,0,0,0,.53.92,3,3,0,0,0,.79.68,7.17,7.17,0,0,0,1,.5l1.06.43,1.11.49a3.59,3.59,0,0,1,.78.48,1.68,1.68,0,0,1,.46.63,2.22,2.22,0,0,1,.15.87,2.06,2.06,0,0,1-.73,1.64,3.53,3.53,0,0,1-2.25.61,6.85,6.85,0,0,1-1.63-.17,12.7,12.7,0,0,1-1.28-.39l-.06,0-.3.9a3.85,3.85,0,0,0-.17.86v0l.82.26.78.19.87.11,1.06,0a5.73,5.73,0,0,0,3.75-1.12,3.82,3.82,0,0,0,1.35-3.09A4.11,4.11,0,0,0,31.06,190Z" transform="translate(-22.65 -105.13)"/><path class="cls-3" d="M41.48,193.68v-.06H35.87v-4.47h4.36l.06-.47,0-.43,0-.42-.06-.47H35.87v-3.73h5.46l.05-.47v-.43a7,7,0,0,0,0-.83v-.06H33.84v13.56h7.64l.05-.47v-.43A4.32,4.32,0,0,0,41.48,193.68Z" transform="translate(-22.65 -105.13)"/><path class="cls-3" d="M54.68,185.84a6.38,6.38,0,0,0-1-2.21,4.94,4.94,0,0,0-1.79-1.47,6.38,6.38,0,0,0-5.09,0A5.11,5.11,0,0,0,45,183.63a6.58,6.58,0,0,0-1.06,2.21,11.7,11.7,0,0,0,0,5.6A6.63,6.63,0,0,0,45,193.66a5,5,0,0,0,1.79,1.45,6.49,6.49,0,0,0,5.09,0,4.79,4.79,0,0,0,1.79-1.45,6.52,6.52,0,0,0,1-2.22,12,12,0,0,0,0-5.6Zm-5.38,8a3.45,3.45,0,0,1-1.59-.35,3,3,0,0,1-1.1-1,5,5,0,0,1-.67-1.64,11,11,0,0,1,0-4.37,4.9,4.9,0,0,1,.67-1.64,3,3,0,0,1,1.1-1,3.33,3.33,0,0,1,1.59-.36,3.26,3.26,0,0,1,1.58.36,2.93,2.93,0,0,1,1.11,1,4.9,4.9,0,0,1,.66,1.64,10.49,10.49,0,0,1,0,4.37,5,5,0,0,1-.66,1.64,2.91,2.91,0,0,1-1.11,1A3.38,3.38,0,0,1,49.3,193.86Z" transform="translate(-22.65 -105.13)"/><path class="cls-3" d="M67.38,181.86a7.79,7.79,0,0,0-1.93,0h-.06v7.68a11.21,11.21,0,0,1-.15,2,3.66,3.66,0,0,1-.48,1.31,1.88,1.88,0,0,1-.85.73,3.13,3.13,0,0,1-1.31.24,3.23,3.23,0,0,1-1.33-.24,1.85,1.85,0,0,1-.86-.73,3.66,3.66,0,0,1-.48-1.31,11,11,0,0,1-.15-2v-7.68h-.05a7,7,0,0,0-.94-.06,7.47,7.47,0,0,0-1,.06h-.06v8A10.5,10.5,0,0,0,58,192.3a4.84,4.84,0,0,0,.83,1.82,3.57,3.57,0,0,0,1.51,1.12,6.66,6.66,0,0,0,4.49,0,3.72,3.72,0,0,0,1.51-1.12,4.84,4.84,0,0,0,.83-1.82,10.5,10.5,0,0,0,.26-2.42v-8Z" transform="translate(-22.65 -105.13)"/><path class="cls-3" d="M78.08,194.11l0-.49H72.77V181.88l-.53-.06-.49,0-.49,0-.51.06v13.55H78v-.06a5.67,5.67,0,0,0,.06-.85Z" transform="translate(-22.65 -105.13)"/><path class="cls-3" d="M89.44,181.91v0h-9.5v0a5.54,5.54,0,0,0-.11,1.15,5.63,5.63,0,0,0,.11,1.18v0h3.34v11.11l.77.08.69,0,.65,0,.71-.07V184.27h3.34v0a6.22,6.22,0,0,0,0-2.33Z" transform="translate(-22.65 -105.13)"/><path class="cls-3" d="M100.06,193v0H95v-3.47h3.87v0a6.73,6.73,0,0,0,.11-1.18,6.89,6.89,0,0,0-.11-1.17v0H95v-2.84h4.88v0a6.22,6.22,0,0,0,0-2.33v0H92.23v13.5h7.82v0a6.67,6.67,0,0,0,.11-1.19A6.31,6.31,0,0,0,100.06,193Z" transform="translate(-22.65 -105.13)"/><path class="cls-3" d="M112.15,195a8,8,0,0,0-.64-2.2l0,0h0a7.75,7.75,0,0,1-1.17.32,7.07,7.07,0,0,1-1.2.09c-2.54,0-3.83-1.52-3.83-4.52a5.34,5.34,0,0,1,.95-3.44,3.36,3.36,0,0,1,2.73-1.15,6.75,6.75,0,0,1,1.18.09,8,8,0,0,1,1.16.32h0l.43-1.11a4.67,4.67,0,0,0,.22-1.1v0h0a7,7,0,0,0-1.64-.47,12.28,12.28,0,0,0-1.66-.11,6.7,6.7,0,0,0-2.72.53,5.54,5.54,0,0,0-2,1.46,6.24,6.24,0,0,0-1.25,2.23,8.62,8.62,0,0,0-.43,2.78,8.79,8.79,0,0,0,.41,2.77,6,6,0,0,0,1.23,2.21,5.51,5.51,0,0,0,2,1.45,7.12,7.12,0,0,0,2.79.52,11.06,11.06,0,0,0,1.68-.12,8.77,8.77,0,0,0,1.75-.46h0Z" transform="translate(-22.65 -105.13)"/><path class="cls-3" d="M124.88,181.88a9.62,9.62,0,0,0-1.39-.11,9.35,9.35,0,0,0-1.37.11h0v5.26h-4.42v-5.26h0a9.62,9.62,0,0,0-1.39-.11,9.14,9.14,0,0,0-1.37.11h0v13.49h0a8.14,8.14,0,0,0,1.39.11,8.32,8.32,0,0,0,1.37-.11h0v-5.8h4.42v5.8h0a8.71,8.71,0,0,0,2.76,0h0V181.89Z" transform="translate(-22.65 -105.13)"/><path class="cls-4" d="M268.82,134H243.1a.09.09,0,0,0-.1.1v5.49a.09.09,0,0,0,.1.09H262a.93.93,0,0,1,.66.18c.07.07.15.25.15.7V160a.11.11,0,0,0,.11.12h6.46a.12.12,0,0,0,.12-.12V134.76A.73.73,0,0,0,268.82,134Z" transform="translate(-22.65 -105.13)"/><path class="cls-4" d="M533.29,163.08H501a.11.11,0,0,0-.1.1v5.5a.1.1,0,0,0,.1.09h26.29c.15,0,.29.21.29.36v12.62a.09.09,0,0,0,.1.1h6.73a.09.09,0,0,0,.1-.1V164.48a1.45,1.45,0,0,0-.33-1A1.22,1.22,0,0,0,533.29,163.08Z" transform="translate(-22.65 -105.13)"/><path class="cls-4" d="M275,168.78v13a.09.09,0,0,0,.1.1h6.46a.09.09,0,0,0,.1-.1V153.81h6.63c.06,0,.13,0,.13-.09v-5.48a.1.1,0,0,0-.1-.1h-6.66V129.65a.09.09,0,0,0-.1-.09h-6.46a.09.09,0,0,0-.1.09v33.44h-18V147.66a.09.09,0,0,0-.1-.1h-6.46a.1.1,0,0,0-.1.1v15.43h-9.5a.09.09,0,0,0-.09.1v5.49a.1.1,0,0,0,.09.1Z" transform="translate(-22.65 -105.13)"/><path class="cls-4" d="M223.11,131.31a13.6,13.6,0,0,0-17.69,0,10.41,10.41,0,0,0,0,15.88,13.6,13.6,0,0,0,17.69,0,10.41,10.41,0,0,0,0-15.88Zm-5,12.08a5.27,5.27,0,0,1-7.77,0h0a6.1,6.1,0,0,1,0-8.28,5.25,5.25,0,0,1,7.77,0,6.13,6.13,0,0,1,0,8.28Z" transform="translate(-22.65 -105.13)"/><path class="cls-4" d="M184.44,129.59H178a.09.09,0,0,0-.09.09v13H166.52a.11.11,0,0,0-.11.1v5.67a.11.11,0,0,0,0,.08l.06,0h11.38V181.8a.09.09,0,0,0,.09.09h6.48a.09.09,0,0,0,.09-.09V129.68A.09.09,0,0,0,184.44,129.59Z" transform="translate(-22.65 -105.13)"/><path class="cls-4" d="M236.89,152.11H191.64a.09.09,0,0,0-.1.1v5.49a.1.1,0,0,0,.1.1h18.93v2.85h-14a.09.09,0,0,0-.1.1V166a.09.09,0,0,0,.1.1h28.25v2.71H196.52a.1.1,0,0,0-.1.1v8c0,1.74.16,2.9,1,3.79a4.1,4.1,0,0,0,3.39,1.16h30.66a.1.1,0,0,0,.09-.1v-5.26s0-.11-.09-.11H203.53a.26.26,0,0,1-.28-.23v-2.44h27a1.22,1.22,0,0,0,1-.39,1.38,1.38,0,0,0,.28-.94V161.52a.81.81,0,0,0-.74-.87H218V157.8h18.93a.1.1,0,0,0,.1-.1v-5.49A.09.09,0,0,0,236.89,152.11Z" transform="translate(-22.65 -105.13)"/><path class="cls-4" d="M173.06,158.21l-.3-.1c-2.54-.81-5.12-2.73-7.67-5.7-2.69-3.14-4.05-7.41-4.05-12.7v-10a.09.09,0,0,0-.1-.09h-6.71a.09.09,0,0,0-.1.09v10c0,5.29-1.36,9.56-4,12.7-2.55,3-5.13,4.89-7.67,5.7l-.3.1a.32.32,0,0,0-.22.18.36.36,0,0,0,0,.27l.25.31,3.09,4a.36.36,0,0,0,.44.12,17.74,17.74,0,0,0,6.8-4.14,19.07,19.07,0,0,0,5.11-6.53,18.89,18.89,0,0,0,5.1,6.53,17.74,17.74,0,0,0,6.8,4.14.37.37,0,0,0,.45-.13l3.08-4,.24-.28a.37.37,0,0,0,0-.29A.32.32,0,0,0,173.06,158.21Z" transform="translate(-22.65 -105.13)"/><path class="cls-4" d="M452.27,163.11a.7.7,0,0,1-.54-.22,1,1,0,0,1-.21-.7V139.63h13.16a.11.11,0,0,0,.1-.1V134a.1.1,0,0,0-.1-.09h-19.8a.09.09,0,0,0-.09.09v27.34c0,2.53.54,4.42,1.61,5.62a6.14,6.14,0,0,0,4.83,1.82h10l11.92,0-.42-5.69Z" transform="translate(-22.65 -105.13)"/><path class="cls-4" d="M469.35,181.76a.09.09,0,0,0,.09.1l6.16,0a.07.07,0,0,0,.07,0,.07.07,0,0,0,0-.06s0-29.47,0-29.67h3.5c0,.19,0,29.64,0,29.64a.09.09,0,0,0,.09.1l6.16,0s.05,0,.06,0a.07.07,0,0,0,0-.06l0-52.08a.1.1,0,0,0-.1-.1h-6.15a.1.1,0,0,0-.11.1v16.72H475.7c0-.19,0-16.72,0-16.72a.09.09,0,0,0,0-.07.08.08,0,0,0-.07,0h-6.15a.09.09,0,0,0-.1.1Z" transform="translate(-22.65 -105.13)"/><path class="cls-4" d="M583.86,134h-35a.09.09,0,0,0-.1.09v5.49a.09.09,0,0,0,.09.09l28.07,0a1,1,0,0,1,.6.14.91.91,0,0,1,.21.72v26.29a.12.12,0,0,0,.12.12h6.6a.12.12,0,0,0,.11-.12v-32A.85.85,0,0,0,583.86,134Z" transform="translate(-22.65 -105.13)"/><path class="cls-4" d="M589.1,171.83a.09.09,0,0,0-.07,0H572V151.48a.09.09,0,0,0-.09-.1h-6.33a.09.09,0,0,0-.09.1V171.8H561V151.48a.09.09,0,0,0-.1-.1h-6.31a.09.09,0,0,0-.09.1V171.8H543.22a.1.1,0,0,0-.1.1v5.54a.1.1,0,0,0,.1.1H589a.11.11,0,0,0,.1-.1V171.9A.11.11,0,0,0,589.1,171.83Z" transform="translate(-22.65 -105.13)"/><path class="cls-4" d="M437.84,152.23H392.58s-.05,0-.07,0a.19.19,0,0,0,0,.07v5.39a.09.09,0,0,0,.09.09h18.94v2.84H397.46a.1.1,0,0,0-.09.1V166a.09.09,0,0,0,.09.1h28.26v2.73H397.46a.1.1,0,0,0-.07,0,.14.14,0,0,0,0,.07v7.93c0,1.55.15,3.26,1.31,4.2a4.66,4.66,0,0,0,3.05.85H432.4a.09.09,0,0,0,.09-.09v-5.38a.09.09,0,0,0-.09-.1H404.48c-.14,0-.28-.07-.28-.24v-2.21h27a1.14,1.14,0,0,0,1-.4,1.58,1.58,0,0,0,.28-.94v-11a.8.8,0,0,0-.74-.87H418.91v-2.86l18.93,0a.09.09,0,0,0,.07,0,.07.07,0,0,0,0-.06v-5.36A.11.11,0,0,0,437.84,152.23Z" transform="translate(-22.65 -105.13)"/><path class="cls-4" d="M369.94,134H346.75a.09.09,0,0,0-.09.1v5.5a.09.09,0,0,0,.09.1h16.83c0,8.13-2,13.56-6,17.28a29.91,29.91,0,0,1-13.32,7.43l-.31.07a.37.37,0,0,0-.22.23.35.35,0,0,0,0,.13.29.29,0,0,0,.08.19l.2.24,2.75,3.47a.29.29,0,0,0,.33.13c5.17-.85,10.45-3.71,15.7-8.48s8-11.63,8-21.4v-4.18a1,1,0,0,0-.16-.62A.85.85,0,0,0,369.94,134Z" transform="translate(-22.65 -105.13)"/><rect class="cls-4" x="356.15" y="24.44" width="6.62" height="52.28" rx="0.1"/><path class="cls-4" d="M332.87,163.08H300.62a.1.1,0,0,0-.09.1v5.5a.1.1,0,0,0,.09.1h26.29c.16,0,.29.19.29.35v12.62a.1.1,0,0,0,.1.1H334a.09.09,0,0,0,.09-.1V164.48a1.44,1.44,0,0,0-.33-1A1.22,1.22,0,0,0,332.87,163.08Z" transform="translate(-22.65 -105.13)"/><path class="cls-4" d="M322.43,134H311.08v-4.27a.1.1,0,0,0-.1-.09H304.1a.1.1,0,0,0-.1.09V134H292.76a.09.09,0,0,0-.1.1v5.49a.09.09,0,0,0,.1.09h4.31a10.63,10.63,0,0,0-1.79,6,10.08,10.08,0,0,0,3.62,7.82,13.39,13.39,0,0,0,17.42,0,10.12,10.12,0,0,0,3.62-7.82,10.57,10.57,0,0,0-1.81-6h4.3a.09.09,0,0,0,.09-.09v-5.49A.09.09,0,0,0,322.43,134Zm-11,15.75a5.17,5.17,0,0,1-7.65,0,5.8,5.8,0,0,1-1.59-4.08,6.3,6.3,0,0,1,1.59-4.29,5.15,5.15,0,0,1,7.65,0,6.3,6.3,0,0,1,1.59,4.29A5.77,5.77,0,0,1,311.43,149.7Z" transform="translate(-22.65 -105.13)"/><path class="cls-4" d="M340.77,140.62h-6.64V129.69a.09.09,0,0,0-.09-.1h-6.47a.09.09,0,0,0-.1.1V160a.09.09,0,0,0,.1.1H334a.09.09,0,0,0,.09-.1V146.87h6.64a.09.09,0,0,0,.1-.1v-6.06A.09.09,0,0,0,340.77,140.62Z" transform="translate(-22.65 -105.13)"/><path class="cls-4" d="M522.84,134H511.49v-4.27a.09.09,0,0,0-.09-.09h-6.88a.1.1,0,0,0-.1.09V134H493.18a.09.09,0,0,0-.1.09v5.5a.09.09,0,0,0,.1.09h4.31a10.53,10.53,0,0,0-1.8,6,10.12,10.12,0,0,0,3.62,7.82,13.39,13.39,0,0,0,17.42,0,10.12,10.12,0,0,0,3.62-7.82,10.58,10.58,0,0,0-1.8-6h4.29a.09.09,0,0,0,.1-.09v-5.5A.09.09,0,0,0,522.84,134Zm-11,15.75a5.17,5.17,0,0,1-7.65,0,5.81,5.81,0,0,1-1.6-4.08,6.39,6.39,0,0,1,1.6-4.3,5.16,5.16,0,0,1,7.65,0,6.31,6.31,0,0,1,1.59,4.29A5.81,5.81,0,0,1,511.85,149.71Z" transform="translate(-22.65 -105.13)"/><path class="cls-4" d="M541.19,140.59h-6.64V129.7a.09.09,0,0,0-.1-.1H528a.1.1,0,0,0-.1.1V160a.1.1,0,0,0,.1.1h6.47a.09.09,0,0,0,.1-.1V146.85h6.64a.1.1,0,0,0,.1-.1v-6.06A.11.11,0,0,0,541.19,140.59Z" transform="translate(-22.65 -105.13)"/><path class="cls-4" d="M434.93,145.07a22.58,22.58,0,0,1-3.26-.36c-6.12-1.13-12.88-4.27-12.91-11.41v-3.59a.09.09,0,0,0-.1-.1h-7.24a.09.09,0,0,0-.1.1v3.59c0,7.14-6.79,10.28-12.91,11.41a22.58,22.58,0,0,1-3.26.36c-.44.08-.24.54-.24.54l2.35,4a.45.45,0,0,0,.27.12,24.36,24.36,0,0,0,10.76-2.3,20.1,20.1,0,0,0,5.1-3.6A11.27,11.27,0,0,0,415,142a11.33,11.33,0,0,0,1.66,1.8,19.87,19.87,0,0,0,5.09,3.6,24.36,24.36,0,0,0,10.76,2.3.45.45,0,0,0,.27-.12l2.35-4S435.37,145.15,434.93,145.07Z" transform="translate(-22.65 -105.13)"/></svg>